# xmcd
#
# Track frame offsets:
#	150
#	12207
#	24809
#	37052
#	52101
#	65217
#	83330
#	99699
#	115597
#	128127
#	143135
#	161437
#	178312
#	189866
#	204645
#	214807
#	231114
#	242801
#	256934
#	271881
#	279777
#
# Disc length: 3960 seconds
#
# Revision: 1
# Processed by: cddbd v1.5.2PL0 Copyright (c) Steve Scherf et al.
# Submitted via: audiograbber 1.82.02
#
DISCID=220f7615
DTITLE=Hurricane Ridgerunners - Field Recorders Collective
DYEAR=1980
DGENRE=oldtime
TTITLE0=Train that Carried My Girl From Town
TTITLE1=Things in Life
TTITLE2=NASA Sweepstakes - Last Chance
TTITLE3=Reilley and Spencer
TTITLE4=Louisville Burglar
TTITLE5=Bury Me Not on the Lone Prarie
TTITLE6=Jimmy in the Swamp - Johnny Cope
TTITLE7=Long Gone Lonesome Blues
TTITLE8=Stepstone
TTITLE9=Darling Nellie Gray
TTITLE10=Hangman's Reel - Sally Johnson - Late for the Dance
TTITLE11=Texas Girl
TTITLE12=Glory in the Meetinghouse
TTITLE13=Rye Whisky 
TTITLE14=Trouble in Mind
TTITLE15=Ladies on the Steamboat - Crockett's Honeymoon
TTITLE16=Lonesome Pine Special
TTITLE17=Immigrants Dream - Cottonpicker's Rag
TTITLE18=Southern Moon
TTITLE19=Rooster Tone Blues
TTITLE20=Prodigal Son
EXTD=
EXTT0=
EXTT1=
EXTT2=
EXTT3=
EXTT4=
EXTT5=
EXTT6=
EXTT7=
EXTT8=
EXTT9=
EXTT10=
EXTT11=
EXTT12=
EXTT13=
EXTT14=
EXTT15=
EXTT16=
EXTT17=
EXTT18=
EXTT19=
EXTT20=
PLAYORDER=
